<svg width="86" height="14" viewBox="0 0 86 14" fill="none" xmlns="http://www.w3.org/2000/svg">
<path d="M85.9614 5.79654C86.0086 5.86852 86.0129 5.96113 85.9726 6.03737L82.9022 13.5502C82.883 13.5956 82.8516 13.6346 82.8117 13.6628C82.7718 13.691 82.7248 13.7073 82.6762 13.7098H81.5954C81.5529 13.7134 81.5103 13.7051 81.472 13.686C81.4338 13.6669 81.4013 13.6377 81.3782 13.6014C81.355 13.565 81.3419 13.523 81.3404 13.4798C81.3389 13.4365 81.3489 13.3936 81.3694 13.3557L82.4159 10.6769L80.7701 6.03754C80.7503 6.00011 80.7409 5.95792 80.7429 5.91547C80.7449 5.87303 80.7582 5.83193 80.7814 5.79657C80.8046 5.7612 80.8368 5.73291 80.8746 5.7147C80.9124 5.69649 80.9544 5.68905 80.9961 5.69318H82.0769C82.1244 5.68893 82.1719 5.70151 82.2113 5.72878C82.2506 5.75605 82.2795 5.79632 82.2929 5.84276L83.2265 9.00057H83.251L84.4349 5.84276C84.5135 5.70324 84.602 5.69318 84.7641 5.69318H85.7467C85.8315 5.68465 85.914 5.72439 85.9614 5.79654ZM52.2418 5.57839C52.6145 5.57624 52.9833 5.65632 53.3226 5.81307C53.6619 5.96983 53.9636 6.19953 54.2069 6.48629C54.3199 6.60108 54.2656 6.75067 54.1528 6.86546L53.6615 7.3942C53.5486 7.51905 53.4258 7.45902 53.3225 7.35941C53.1908 7.21367 53.0306 7.09755 52.8521 7.0185C52.6736 6.93945 52.4807 6.89922 52.286 6.90042C52.1003 6.89882 51.9162 6.9357 51.745 7.00879C51.5739 7.08189 51.4192 7.18967 51.2904 7.32554C51.1616 7.46142 51.0615 7.62253 50.9962 7.79904C50.9308 7.97554 50.9016 8.16372 50.9103 8.35208C50.8989 8.54099 50.9258 8.73027 50.9893 8.90819C51.0529 9.08611 51.1518 9.24887 51.2799 9.38638C51.4079 9.5239 51.5624 9.63323 51.7338 9.70761C51.9052 9.78198 52.0898 9.81981 52.2762 9.81876C52.4926 9.81624 52.7054 9.7621 52.8974 9.66071C53.0893 9.55932 53.2552 9.41353 53.3815 9.23509C53.4219 9.19 53.4773 9.16155 53.537 9.1551C53.5967 9.14866 53.6567 9.16468 53.7056 9.20012L54.1969 9.63421C54.3199 9.74883 54.3789 9.87862 54.2855 10.0134C54.0681 10.3666 53.763 10.6553 53.4007 10.8506C53.0385 11.0459 52.632 11.1408 52.2221 11.1258C51.8545 11.1418 51.4876 11.0822 51.1433 10.9504C50.799 10.8186 50.4845 10.6175 50.2188 10.359C49.9531 10.1006 49.7417 9.7902 49.5972 9.44658C49.4528 9.10296 49.3783 8.73321 49.3783 8.35959C49.3783 7.98597 49.4528 7.61622 49.5972 7.2726C49.7417 6.92898 49.9531 6.6186 50.2188 6.36016C50.4845 6.10171 50.799 5.90054 51.1433 5.76877C51.4876 5.63699 51.8545 5.57734 52.2221 5.5934L52.2418 5.57839ZM57.4052 5.57839C59.0262 5.57839 59.3701 6.43649 59.3701 7.88321V10.7316C59.3701 10.8703 59.2609 10.9834 59.1245 10.9861H58.7413C58.648 10.9861 58.5841 10.9511 58.5153 10.8015L58.368 10.4473C58.1516 10.6617 57.8957 10.8306 57.615 10.9445C57.3343 11.0583 57.0342 11.1148 56.7319 11.1108C56.495 11.1257 56.2577 11.0889 56.036 11.0028C55.8143 10.9167 55.6134 10.7834 55.4467 10.6118C55.2801 10.4402 55.1516 10.2343 55.0699 10.008C54.9882 9.78168 54.9553 9.54023 54.9733 9.2999C54.9978 8.36215 55.7544 7.63862 57.0709 7.63862C57.4035 7.64527 57.7337 7.69559 58.0535 7.78837C58.0535 7.11499 57.8815 6.79058 57.3312 6.79058C56.8344 6.79911 56.3401 6.86443 55.8575 6.98519C55.6905 7.04506 55.5874 6.92038 55.5677 6.76073L55.4547 6.16205C55.4426 6.13007 55.4374 6.09582 55.4394 6.06161C55.4414 6.0274 55.4507 5.99404 55.4665 5.96377C55.4823 5.9335 55.5044 5.90703 55.5312 5.88616C55.5579 5.86528 55.5888 5.85048 55.6217 5.84276C56.2015 5.67259 56.8016 5.58364 57.4052 5.57839ZM31.1908 5.57839C32.8169 5.57839 33.156 6.43649 33.156 7.88321V10.7316C33.156 10.8722 33.0436 10.9861 32.9054 10.9861H32.5221C32.4337 10.9861 32.3649 10.9511 32.2962 10.8015L32.1487 10.4473C31.9326 10.6621 31.6768 10.8313 31.396 10.9452C31.1152 11.0591 30.815 11.1154 30.5127 11.1108C30.2758 11.1257 30.0385 11.0889 29.8168 11.0028C29.5951 10.9167 29.3941 10.7834 29.2274 10.6118C29.0608 10.4402 28.9323 10.2343 28.8506 10.008C28.769 9.78168 28.736 9.54023 28.754 9.2999C28.7836 8.36215 29.5401 7.63862 30.8617 7.63862C31.1943 7.64459 31.5245 7.6949 31.8443 7.78837C31.8443 7.11499 31.6772 6.79058 31.1221 6.79058C30.625 6.79911 30.1307 6.86443 29.6481 6.98519C29.4763 7.04506 29.378 6.92038 29.3533 6.76073L29.2405 6.16205C29.2283 6.13007 29.2231 6.09582 29.2252 6.06161C29.2272 6.0274 29.2365 5.99404 29.2523 5.96377C29.2681 5.9335 29.2901 5.90703 29.3169 5.88616C29.3437 5.86528 29.3745 5.85048 29.4074 5.84276C29.9872 5.67259 30.5872 5.58364 31.1908 5.57839ZM70.7701 6.27855C70.9942 6.50796 71.1697 6.78149 71.2858 7.08232C71.402 7.38314 71.4563 7.70491 71.4455 8.02784C71.4455 8.10767 71.4455 8.29222 71.421 8.37204C71.4152 8.43524 71.3872 8.49422 71.3421 8.53819C71.297 8.58215 71.2378 8.60818 71.1754 8.61151H67.8347C67.8404 8.77861 67.8785 8.94292 67.9468 9.09506C68.015 9.2472 68.1122 9.38418 68.2327 9.49816C68.3531 9.61213 68.4945 9.70088 68.6488 9.75931C68.8031 9.81775 68.9672 9.84473 69.1317 9.83871C69.537 9.8469 69.9321 9.70908 70.2469 9.44966C70.3745 9.34476 70.5072 9.33487 70.5858 9.44966L71.0279 10.0432C71.0513 10.0661 71.0694 10.0938 71.0811 10.1246C71.0927 10.1553 71.0975 10.1883 71.0951 10.2212C71.0928 10.254 71.0834 10.2859 71.0675 10.3147C71.0517 10.3434 71.0298 10.3682 71.0034 10.3874C70.4638 10.8585 69.7745 11.1154 69.0629 11.1108C68.7085 11.111 68.3576 11.0386 68.0314 10.8981C67.7051 10.7575 67.41 10.5517 67.1638 10.2928C66.9176 10.0339 66.7253 9.72732 66.5984 9.3913C66.4715 9.05528 66.4125 8.69674 66.4251 8.33707C66.4146 7.97945 66.4747 7.62332 66.602 7.28969C66.7293 6.95606 66.921 6.6517 67.166 6.39456C67.411 6.13742 67.7042 5.93273 68.0284 5.79255C68.3526 5.65237 68.7011 5.57955 69.0535 5.57839C69.3715 5.57006 69.6879 5.62788 69.9832 5.74829C70.2785 5.8687 70.5464 6.04915 70.7704 6.27855H70.7701ZM65.2753 2.96946C65.3406 2.97063 65.4029 2.99712 65.4495 3.0435C65.4961 3.08987 65.5235 3.15261 65.5259 3.21882V10.7318C65.5259 10.8723 65.4137 10.9863 65.2753 10.9863H64.8578C64.735 10.9863 64.6562 10.8815 64.6122 10.7318L64.4745 10.3178C64.2644 10.5668 64.0037 10.7667 63.7103 10.9036C63.4168 11.0405 63.0977 11.1112 62.7748 11.1109C61.3501 11.1109 60.2791 9.94361 60.2791 8.33725C60.2575 7.98064 60.3085 7.62333 60.4289 7.28764C60.5494 6.95195 60.7367 6.64508 60.9792 6.3862C61.2217 6.12731 61.5141 5.92198 61.8383 5.78302C62.1624 5.64406 62.5113 5.57446 62.8631 5.57856C63.2899 5.57924 63.7136 5.65344 64.116 5.79807V3.21916C64.1206 3.15454 64.1479 3.09375 64.193 3.04792C64.2381 3.00209 64.298 2.9743 64.3616 2.96963L65.2753 2.96946ZM17.4647 2.99436C17.6142 2.99436 17.7351 3.11716 17.7351 3.26879V6.36161L20.5795 3.10898C20.604 3.0727 20.6371 3.04321 20.6757 3.0232C20.7143 3.00318 20.7572 2.99327 20.8005 2.99436H21.9305C21.978 2.99219 22.0251 3.00469 22.0655 3.0302C22.1059 3.05572 22.1378 3.09305 22.1569 3.13731C22.1761 3.18156 22.1816 3.23065 22.1727 3.27814C22.1639 3.32563 22.1411 3.36928 22.1073 3.40337L19.1596 6.77079L22.3186 10.6069C22.3458 10.6448 22.3621 10.6896 22.3658 10.7363C22.3695 10.783 22.3604 10.8298 22.3396 10.8716C22.3188 10.9134 22.2869 10.9486 22.2477 10.9732C22.2084 10.9978 22.1632 11.011 22.1171 11.0112H20.8891C20.851 11.0133 20.813 11.0074 20.7774 10.9936C20.7418 10.9798 20.7095 10.9585 20.6826 10.9312L17.7349 7.23967V10.7316C17.7349 10.8841 17.6148 11.0083 17.4648 11.011H16.4822C16.4463 11.011 16.4108 11.0037 16.3777 10.9896C16.3445 10.9755 16.3145 10.9549 16.2894 10.9289C16.2642 10.9029 16.2444 10.872 16.2311 10.8382C16.2178 10.8043 16.2113 10.7681 16.212 10.7316V3.24389C16.217 3.17504 16.2478 3.11077 16.2981 3.06434C16.3485 3.01791 16.4144 2.99286 16.4824 2.99436H17.4647ZM45.6687 2.86968C45.7087 2.86798 45.7483 2.8791 45.7818 2.90147C45.8153 2.92384 45.8411 2.95633 45.8554 2.99436L49.3287 10.7018C49.3453 10.7339 49.3532 10.77 49.3516 10.8064C49.3499 10.8427 49.3387 10.8779 49.3192 10.9083C49.2997 10.9388 49.2726 10.9635 49.2406 10.9798C49.2086 10.9961 49.1729 11.0034 49.1372 11.0011H48.1546C48.0824 11.0056 48.0107 10.9855 47.951 10.9439C47.8914 10.9023 47.8471 10.8416 47.8254 10.7715L47.2751 9.53443H43.9246L43.3695 10.7715C43.3459 10.8394 43.3019 10.8981 43.2438 10.9393C43.1856 10.9804 43.1162 11.0021 43.0453 11.0011H42.0627C42.0242 11.0077 41.9846 11.0025 41.949 10.9861C41.9134 10.9698 41.8834 10.943 41.8629 10.9093C41.8423 10.8756 41.8322 10.8364 41.8336 10.7967C41.8351 10.7571 41.8482 10.7188 41.8712 10.6868L45.3641 2.99436C45.3781 2.95931 45.4015 2.92899 45.4318 2.90695C45.462 2.88491 45.4978 2.87204 45.535 2.86985L45.6687 2.86968ZM24.3082 2.96946C24.3735 2.97063 24.4358 2.99712 24.4824 3.0435C24.529 3.08987 24.5564 3.15261 24.5588 3.21882V6.02765C24.9334 5.72073 25.4043 5.56128 25.8853 5.57856C27.5457 5.57856 27.9977 6.74589 27.9977 8.07287V10.7268C27.9952 10.7935 27.9681 10.8569 27.9216 10.9041C27.8751 10.9513 27.8127 10.9789 27.7471 10.9813H26.8333C26.7677 10.98 26.7053 10.9526 26.6593 10.905C26.6134 10.8574 26.5877 10.7934 26.5877 10.7268V8.06281C26.5877 7.32939 26.2585 6.88541 25.6395 6.88541C25.3791 6.88015 25.1257 6.97146 24.9268 7.14225C24.7278 7.31305 24.597 7.55161 24.5588 7.81328V10.7316C24.5588 10.8814 24.49 10.9861 24.2837 10.9861H23.3945C23.3293 10.9836 23.2675 10.9558 23.2218 10.9085C23.1762 10.8611 23.1501 10.7979 23.1489 10.7316V3.21882C23.1535 3.15423 23.1809 3.09348 23.2259 3.04769C23.271 3.00189 23.3309 2.97412 23.3945 2.96946H24.3082ZM76.4861 6.37662C76.6927 6.12779 76.9498 5.9272 77.2397 5.78858C77.5297 5.64996 77.8458 5.57657 78.1663 5.57344C79.8317 5.57344 80.2296 6.65106 80.2296 8.02273V10.7267C80.229 10.7607 80.2218 10.7944 80.2084 10.8256C80.1949 10.8568 80.1756 10.8851 80.1514 10.9087C80.1272 10.9324 80.0987 10.9509 80.0674 10.9633C80.0362 10.9758 80.0028 10.9818 79.9693 10.9811H79.0654C78.9998 10.9798 78.9373 10.9525 78.8914 10.9049C78.8454 10.8573 78.8197 10.7933 78.8197 10.7267V7.98299C78.8197 7.29954 78.5692 6.87552 77.9158 6.87552C77.7165 6.85429 77.5155 6.89548 77.3399 6.99356C77.1642 7.09164 77.0223 7.24191 76.9332 7.42422V10.7168C76.932 10.783 76.9059 10.8462 76.8603 10.8935C76.8146 10.9408 76.7528 10.9686 76.6876 10.9711H75.8229C75.7899 10.9718 75.757 10.9657 75.7263 10.9531C75.6956 10.9406 75.6677 10.9219 75.6443 10.8982C75.6209 10.8744 75.6024 10.8461 75.5901 10.8149C75.5777 10.7838 75.5717 10.7504 75.5723 10.7168V7.98299C75.5723 7.29954 75.3809 6.87552 74.7175 6.87552C74.4867 6.88124 74.2643 6.96546 74.0862 7.1147C73.908 7.26394 73.7843 7.46957 73.7349 7.69866V10.7215C73.7337 10.7878 73.7076 10.851 73.662 10.8983C73.6163 10.9456 73.5545 10.9733 73.4894 10.9759H72.5756C72.5104 10.9733 72.4487 10.9456 72.403 10.8983C72.3573 10.851 72.3312 10.7878 72.33 10.7215L72.2808 5.94749C72.2808 5.80882 72.39 5.69573 72.5266 5.69301H72.9342C72.9813 5.68793 73.0285 5.70026 73.0674 5.72774C73.1062 5.75522 73.1339 5.796 73.1455 5.84259L73.337 6.34149C73.5251 6.09644 73.767 5.89938 74.0434 5.76601C74.3197 5.63264 74.6229 5.56664 74.9288 5.57327C75.2346 5.55928 75.5388 5.62591 75.8117 5.76665C76.0846 5.9074 76.317 6.11748 76.4863 6.37645L76.4861 6.37662ZM37.1353 5.5835C38.7908 5.5835 39.2183 6.71587 39.2183 7.998V10.7367C39.2136 10.7995 39.1866 10.8584 39.1424 10.9024C39.0981 10.9464 39.0395 10.9726 38.9776 10.976H38.0442C37.9778 10.976 37.9141 10.9492 37.8671 10.9016C37.8201 10.8539 37.7937 10.7892 37.7936 10.7217V7.98299C37.7936 7.29954 37.5233 6.87552 36.8946 6.87552C36.6436 6.86857 36.3972 6.94528 36.1932 7.09392C35.9892 7.24257 35.8387 7.45497 35.7647 7.69866V10.7215C35.7647 10.916 35.6861 10.9759 35.4405 10.9759H34.6052C34.5396 10.9734 34.4773 10.9458 34.4309 10.8986C34.3844 10.8514 34.3572 10.7882 34.3548 10.7215V5.94749C34.3548 5.80694 34.4668 5.69301 34.6052 5.69301H35.0475C35.1483 5.68516 35.2398 5.7527 35.2637 5.85265L35.4551 6.35155C35.6589 6.1018 35.9163 5.90273 36.2075 5.76957C36.4987 5.63641 36.8161 5.57288 37.1353 5.5835ZM57.2775 8.5467C56.6782 8.5467 56.3538 8.83103 56.3538 9.2999C56.3461 9.40126 56.3604 9.5031 56.3957 9.59822C56.431 9.69335 56.4865 9.77942 56.5582 9.85034C56.6299 9.92127 56.7161 9.97531 56.8107 10.0086C56.9053 10.042 57.0059 10.0538 57.1055 10.0432C57.2961 10.0377 57.4822 9.98308 57.6464 9.88448C57.8105 9.78587 57.9472 9.64651 58.0438 9.47951V8.70634C57.8006 8.60435 57.5406 8.55018 57.2775 8.5467ZM31.0633 8.5467C30.4638 8.5467 30.1396 8.83103 30.1396 9.2999C30.1326 9.4015 30.1476 9.50341 30.1835 9.5985C30.2194 9.69359 30.2754 9.77956 30.3475 9.85038C30.4196 9.92119 30.506 9.97515 30.6008 10.0085C30.6956 10.0418 30.7964 10.0536 30.8961 10.0432C31.0861 10.0378 31.2716 9.98318 31.435 9.88452C31.5983 9.78586 31.7341 9.64644 31.8295 9.47951V8.70634C31.5864 8.60435 31.3263 8.55018 31.0633 8.5467ZM63.0303 6.88541C62.8491 6.88748 62.6703 6.92749 62.5051 7.00295C62.3398 7.07842 62.1917 7.1877 62.07 7.32396C61.9482 7.46022 61.8555 7.62053 61.7976 7.79486C61.7397 7.96919 61.7178 8.15378 61.7334 8.33707C61.7334 9.08551 62.151 9.80392 62.9663 9.80392C63.2086 9.81476 63.4484 9.75038 63.6538 9.61936C63.8592 9.48834 64.0205 9.29688 64.116 9.0705V7.18475C63.7886 6.98428 63.4126 6.88061 63.0303 6.88541ZM45.6147 5.72814H45.5803L44.4751 8.24736H46.7396L45.6147 5.72814ZM67.9479 7.67358H70.0357C70.0218 7.42128 69.9111 7.18453 69.7275 7.01395C69.5439 6.84338 69.3019 6.75249 69.0531 6.76073C68.7889 6.74062 68.5271 6.82401 68.3216 6.99379C68.116 7.16356 67.9823 7.40681 67.9479 7.67358Z" fill="black"/>
<path d="M0.810618 2.89459C0.576001 3.04537 0.38011 3.25071 0.23915 3.49363C0.0981904 3.73654 0.0162132 4.01004 0 4.2915L0 9.67908C0.0162132 9.96054 0.0981904 10.234 0.23915 10.477C0.38011 10.7199 0.576001 10.9252 0.810618 11.076L5.57102 13.7798C5.82336 13.9053 6.10064 13.9706 6.38164 13.9706C6.66264 13.9706 6.93992 13.9053 7.19226 13.7798L11.9575 11.0758C12.1921 10.9251 12.388 10.7197 12.529 10.4769C12.6699 10.234 12.7519 9.96051 12.7682 9.67908V4.29133C12.7519 4.0099 12.6699 3.73643 12.529 3.49355C12.388 3.25067 12.1921 3.04536 11.9575 2.89459L7.19713 0.190826C6.94479 0.0652735 6.66752 0 6.38651 0C6.10551 0 5.82823 0.0652735 5.5759 0.190826L0.810618 2.89442V2.89459Z" fill="#14BF96"/>
<path d="M11.2748 5.64832C8.63166 5.64832 6.65685 7.87314 6.65685 10.602V10.7168H6.12624V10.602C6.12624 7.87314 4.161 5.65821 1.49836 5.64832V6.14721C1.49314 7.15529 1.79154 8.1409 2.35354 8.97191C2.91555 9.80291 3.71431 10.4396 4.64274 10.7966C5.20772 11.0069 5.80466 11.1149 6.40641 11.1157C7.01286 11.1149 7.61454 11.0069 8.18453 10.7966C9.11163 10.4381 9.90893 9.80092 10.4699 8.97009C11.0309 8.13926 11.3288 7.15438 11.3239 6.14704C11.2992 5.98757 11.2894 5.81786 11.2748 5.64832Z" fill="white"/>
<path d="M6.3866 5.85779C7.20054 5.85779 7.86036 5.18777 7.86036 4.36127C7.86036 3.53476 7.20054 2.86475 6.3866 2.86475C5.57267 2.86475 4.91284 3.53476 4.91284 4.36127C4.91284 5.18777 5.57267 5.85779 6.3866 5.85779Z" fill="white"/>
</svg>
