<svg width="90" height="13" viewBox="0 0 90 13" fill="none" xmlns="http://www.w3.org/2000/svg">
<path d="M5.96214 9.50061e-05C6.57006 -0.00510566 7.16018 0.203359 7.62773 0.58848C8.09528 0.973602 8.41002 1.51047 8.51607 2.10376C9.08751 1.88823 9.71778 1.88182 10.2936 2.08569C10.8693 2.28957 11.3528 2.69035 11.6571 3.21596L11.6582 3.21805L11.6699 3.24018C11.9639 3.75873 12.0669 4.36244 11.9611 4.94794C11.8554 5.53344 11.5476 6.06429 11.0904 6.4496C11.5635 6.83512 11.8835 7.3743 11.9935 7.97145C12.1036 8.5686 11.9966 9.18508 11.6916 9.71146L11.6851 9.72227L11.6777 9.73254C11.3752 10.2456 10.9008 10.6374 10.337 10.8396C9.7732 11.0418 9.15571 11.0416 8.59201 10.8392C8.49982 11.4369 8.19596 11.9825 7.73484 12.3785C7.27373 12.7744 6.68547 12.9947 6.07541 12.9999C5.46535 13.0051 4.87333 12.795 4.40536 12.4071C3.93739 12.0191 3.62404 11.4788 3.52141 10.8827C2.96937 11.0909 2.36179 11.1042 1.80104 10.9203C1.2403 10.7363 0.760656 10.3665 0.442944 9.87296L0.436265 9.86251L0.448042 9.88202L0.379839 9.77192C0.377593 9.76828 0.375483 9.76456 0.373511 9.76077L0.368237 9.74927C0.0740215 9.23086 -0.0291204 8.62718 0.0764867 8.04168C0.182094 7.45617 0.489875 6.92529 0.947086 6.54002C0.472887 6.15461 0.15216 5.61486 0.0420611 5.01694C-0.0680382 4.41901 0.0396419 3.80177 0.345913 3.2752L0.352241 3.26457L0.359272 3.25412C0.662543 2.74171 1.1371 2.35057 1.70074 2.14846C2.26438 1.94636 2.8816 1.94601 3.44547 2.14749C3.54113 1.55245 3.84644 1.01025 4.30721 0.617151C4.76797 0.224054 5.3542 0.00531874 5.96214 9.50061e-05ZM5.9762 0.445916C4.83538 0.450097 3.9141 1.37031 3.91832 2.50098C3.92149 2.54819 3.91129 2.5954 3.88879 2.63704C3.87319 2.66612 3.85195 2.69186 3.82628 2.71278C3.80062 2.7337 3.77104 2.7494 3.73924 2.75896C3.70744 2.76853 3.67405 2.77178 3.64099 2.76853C3.60792 2.76527 3.57582 2.75558 3.54655 2.74L3.49838 2.71526C2.52982 2.23408 1.34558 2.57694 0.793102 3.50743C0.790039 3.5141 0.786636 3.52061 0.782906 3.52694L0.756012 3.5745C0.232358 4.53269 0.55316 5.73479 1.49535 6.30901C1.53544 6.32932 1.56939 6.35979 1.59375 6.39731C1.61811 6.43484 1.63201 6.47809 1.63405 6.52266C1.63609 6.56724 1.62618 6.61156 1.60534 6.65111C1.5845 6.69066 1.55346 6.72404 1.51539 6.74786L1.45896 6.78392L1.42328 6.80831C1.01086 7.09691 0.718399 7.5243 0.600417 8.01081C0.482436 8.49732 0.546983 9.00975 0.782027 9.45258L0.808394 9.50066C0.812789 9.50676 0.817008 9.51286 0.820699 9.51948L0.848824 9.56651C1.42011 10.4944 2.62896 10.8204 3.59822 10.2981C3.63578 10.2736 3.67923 10.2595 3.72411 10.2573C3.76898 10.255 3.81365 10.2647 3.8535 10.2853C3.89335 10.3059 3.92693 10.3366 3.95078 10.3743C3.97463 10.4121 3.98788 10.4555 3.98916 10.5L3.9925 10.5864L3.98793 10.5012L3.98899 10.5576C3.99994 10.8973 4.09605 11.229 4.26864 11.5227C4.44123 11.8163 4.68487 12.0628 4.97758 12.2399L5.02768 12.2691C5.34241 12.4477 5.69901 12.541 6.06164 12.5396C6.42427 12.5383 6.78016 12.4424 7.09352 12.2615C7.40689 12.0806 7.6667 11.8212 7.84683 11.5092C8.02695 11.1973 8.12106 10.8439 8.11968 10.4845C8.11652 10.4398 8.12551 10.395 8.14572 10.3549C8.16592 10.3148 8.1966 10.2808 8.23456 10.2565C8.27252 10.2321 8.31638 10.2183 8.36156 10.2165C8.40674 10.2146 8.4516 10.2248 8.49146 10.246L8.5405 10.271C9.508 10.7505 10.6903 10.408 11.2428 9.47906L11.2528 9.4592C11.8148 8.49438 11.5 7.26232 10.5432 6.6787C10.503 6.65843 10.4689 6.62795 10.4445 6.59037C10.42 6.55279 10.4061 6.50946 10.404 6.4648C10.402 6.42013 10.4119 6.37573 10.4329 6.33612C10.4538 6.29651 10.4849 6.26311 10.5231 6.23932C10.9752 5.95806 11.3009 5.51529 11.4328 5.00266C11.5647 4.49002 11.4926 3.94675 11.2315 3.4853C11.2274 3.47941 11.2235 3.47331 11.2199 3.46701L11.1918 3.42015C10.6212 2.49105 9.41132 2.16526 8.44224 2.68913C8.4033 2.71443 8.35816 2.72876 8.31163 2.7306C8.24435 2.73271 8.17897 2.70826 8.12986 2.66263C8.08074 2.61699 8.05192 2.5539 8.04972 2.48721C8.04568 1.3548 7.11702 0.44156 5.9762 0.445916ZM4.36534 7.06354C4.42657 6.943 4.53224 6.85043 4.66046 6.80499C4.78867 6.75955 4.92961 6.76473 5.05408 6.81946C5.17855 6.87419 5.27701 6.97427 5.32906 7.09897C5.38112 7.22367 5.38279 7.36344 5.33372 7.48933C5.24372 7.67957 5.23879 7.79194 5.29961 7.92592L5.76192 8.90153C5.85227 9.09787 6.04845 9.16425 6.20841 9.20292C6.45333 9.26147 6.6726 9.3969 6.83354 9.58903C6.99447 9.78115 7.08844 10.0197 7.10145 10.2691C7.11445 10.5184 7.04579 10.7653 6.9057 10.9728C6.76561 11.1804 6.56159 11.3375 6.32406 11.4207C6.08653 11.504 5.82821 11.509 5.58761 11.4348C5.34701 11.3607 5.13702 11.2116 4.98895 11.0095C4.84087 10.8075 4.76264 10.5635 4.76591 10.3138C4.76919 10.0641 4.85379 9.82215 5.00711 9.62401C5.13596 9.45693 5.17463 9.34003 5.12542 9.13045L4.87756 8.07574C4.84346 7.93985 4.77315 7.87156 4.57329 7.7571C4.4556 7.68988 4.36843 7.58047 4.32974 7.45143C4.29105 7.32238 4.30379 7.18355 4.36534 7.06354ZM4.55342 5.39298C4.68975 5.38605 4.82356 5.43126 4.92722 5.51929C5.03089 5.60731 5.09649 5.73142 5.1105 5.86599C5.12451 6.00057 5.08585 6.13534 5.00249 6.24248C4.91914 6.34963 4.79747 6.42096 4.66258 6.44176C4.45164 6.45901 4.3511 6.51093 4.26391 6.63044L3.64481 7.51581C3.51912 7.69177 3.55867 7.89386 3.60578 8.051C3.67706 8.29151 3.66796 8.5484 3.57984 8.78336C3.49172 9.01832 3.3293 9.21873 3.11683 9.3547C2.90435 9.49067 2.65322 9.5549 2.40089 9.5378C2.14856 9.52071 1.90858 9.42321 1.71675 9.25985C1.52492 9.0965 1.39153 8.87604 1.33648 8.63139C1.28144 8.38673 1.30769 8.131 1.41132 7.90234C1.51495 7.67369 1.69041 7.48438 1.9115 7.36266C2.1326 7.24094 2.38748 7.19334 2.63811 7.22696C2.84869 7.25483 2.96981 7.22974 3.12783 7.08253L3.92289 6.34159C4.02485 6.2442 4.0484 6.1496 4.0484 5.92051C4.04831 5.78515 4.10069 5.65493 4.19471 5.55675C4.28873 5.45858 4.41703 5.39995 4.55342 5.39298ZM8.5129 7.53915C8.6461 7.39907 8.81252 7.29422 8.99704 7.23416C9.18155 7.1741 9.37829 7.16072 9.56935 7.19525C9.76954 7.23106 9.95688 7.31788 10.113 7.44717C10.269 7.57645 10.3885 7.74377 10.4596 7.93266C10.5307 8.12155 10.551 8.32553 10.5185 8.52455C10.486 8.72357 10.4018 8.91078 10.2741 9.06778C10.1465 9.22478 9.97989 9.34618 9.79062 9.42004C9.60134 9.4939 9.39593 9.51768 9.19457 9.48904C8.99321 9.46041 8.80283 9.38035 8.64214 9.25672C8.48145 9.1331 8.35598 8.97016 8.27806 8.78393C8.1972 8.58864 8.11493 8.49735 7.90716 8.4348L6.86548 8.12104C6.72925 8.08236 6.63538 8.10884 6.43622 8.2233C6.32761 8.28628 6.19981 8.30854 6.07604 8.28602C5.94006 8.25812 5.82045 8.17868 5.7427 8.06464C5.66496 7.9506 5.63523 7.81097 5.65984 7.67552C5.68446 7.54007 5.76149 7.4195 5.8745 7.33952C5.98751 7.25954 6.12757 7.22646 6.26483 7.24734C6.39005 7.26949 6.50291 7.33591 6.58247 7.43428C6.70306 7.60745 6.79903 7.66842 6.94528 7.68219L8.02669 7.77243C8.2429 7.79281 8.40111 7.65762 8.5129 7.53915ZM8.47546 3.60638C8.61212 3.45989 8.78454 3.35073 8.9761 3.28942C9.16767 3.22812 9.37194 3.21673 9.56923 3.25636C9.76653 3.29598 9.95021 3.38529 10.1026 3.51567C10.255 3.64606 10.3709 3.81313 10.4392 4.0008C10.5076 4.18847 10.526 4.39041 10.4927 4.58719C10.4595 4.78396 10.3757 4.96893 10.2494 5.12429C10.1231 5.27966 9.95852 5.40017 9.7716 5.47423C9.58468 5.54829 9.38166 5.57341 9.1821 5.54716C8.97222 5.51894 8.85093 5.54437 8.6929 5.69158L7.89907 6.43201C7.79694 6.52974 7.77339 6.62382 7.77339 6.85361C7.7735 6.9385 7.75292 7.02216 7.71338 7.09746C7.67385 7.17277 7.61654 7.23749 7.54634 7.28612C7.47613 7.33475 7.39511 7.36585 7.31017 7.37676C7.22523 7.38767 7.13889 7.37808 7.05849 7.34881C6.9781 7.31953 6.90603 7.27143 6.84843 7.20861C6.79083 7.14578 6.74939 7.07009 6.72766 6.98798C6.70593 6.90587 6.70454 6.81977 6.7236 6.73701C6.74267 6.65426 6.78164 6.57729 6.83718 6.51267C6.9191 6.41596 7.03353 6.35186 7.15938 6.33218C7.37085 6.31511 7.4714 6.26302 7.55683 6.1435L8.17558 5.25831C8.30161 5.08165 8.26136 4.88026 8.21513 4.72259C8.1597 4.53756 8.15165 4.34176 8.1917 4.15288C8.23175 3.96399 8.31864 3.78797 8.44452 3.6407L8.47546 3.60638ZM5.88585 1.27641C6.10529 1.2763 6.32035 1.33724 6.50658 1.45228C6.69281 1.56732 6.84273 1.73185 6.93928 1.92716C7.03583 2.12246 7.07514 2.3407 7.05274 2.55705C7.03034 2.7734 6.94713 2.97918 6.81257 3.15098C6.6853 3.31718 6.64505 3.43391 6.69708 3.64645L6.94493 4.69768C6.97903 4.83444 7.04935 4.90238 7.24868 5.01649C7.33645 5.06663 7.40789 5.14063 7.45456 5.22975C7.50123 5.31886 7.52116 5.41936 7.51202 5.51935C7.50287 5.61934 7.46501 5.71464 7.40293 5.79398C7.34085 5.87332 7.25714 5.93338 7.16171 5.96705C7.06627 6.00072 6.9631 6.0066 6.8644 5.98399C6.7657 5.96137 6.6756 5.91121 6.60476 5.83945C6.53392 5.76768 6.4853 5.6773 6.46465 5.57901C6.444 5.48071 6.45219 5.37861 6.48825 5.28479C6.57807 5.09437 6.5837 4.98165 6.52235 4.8482L6.06057 3.87206C5.96952 3.67572 5.77405 3.60934 5.61409 3.57119L5.61163 3.57224C5.36634 3.51299 5.14682 3.37704 4.98557 3.1845C4.82432 2.99197 4.72991 2.75309 4.71633 2.50323C4.70274 2.25337 4.77069 2.00582 4.91013 1.79723C5.04957 1.58863 5.25307 1.43008 5.49051 1.34505C5.61724 1.29947 5.75104 1.27624 5.88585 1.27641ZM2.22467 3.2968C2.49155 3.24245 2.76921 3.28191 3.00992 3.40842C3.25064 3.53492 3.43938 3.74056 3.54373 3.99001C3.62459 4.18478 3.70721 4.2766 3.91446 4.33914L4.95684 4.65273C5.09254 4.69158 5.18676 4.66458 5.3861 4.54994C5.47419 4.49942 5.57505 4.47497 5.67672 4.47948C5.7784 4.484 5.87664 4.5173 5.95982 4.57543C6.043 4.63357 6.10763 4.7141 6.14606 4.80751C6.18449 4.90091 6.19511 5.00328 6.17667 5.10248C6.15823 5.20168 6.1115 5.29357 6.042 5.36727C5.9725 5.44097 5.88316 5.49339 5.78454 5.51832C5.68592 5.54326 5.58215 5.53967 5.48553 5.50798C5.3889 5.47628 5.30346 5.41781 5.23932 5.33949C5.11874 5.16632 5.02311 5.10552 4.87633 5.09176L3.79563 5.00151C3.57942 4.98095 3.42156 5.11597 3.30977 5.23496C3.17637 5.37486 3.00986 5.47957 2.82533 5.53959C2.64079 5.59961 2.44407 5.61305 2.25297 5.57869C1.98482 5.53084 1.74187 5.39192 1.56584 5.18581C1.38981 4.9797 1.29171 4.71927 1.28838 4.44925C1.28505 4.17924 1.37671 3.91651 1.5476 3.7062C1.7185 3.49589 1.95778 3.35113 2.22467 3.2968ZM19.9886 8.57383C19.7143 8.87518 19.3911 9.12897 19.0324 9.3247C18.6738 9.52017 18.2085 9.61773 17.6365 9.61739C17.2252 9.62104 16.8174 9.54143 16.4384 9.38341C16.0841 9.23791 15.7624 9.02413 15.4922 8.75446C15.2219 8.48479 15.0083 8.16461 14.8639 7.8125C14.7135 7.44932 14.6376 7.0601 14.6407 6.66755V6.64594C14.638 6.25184 14.7138 5.86109 14.8639 5.49611C15.0084 5.1434 15.2201 4.82161 15.4876 4.54837C15.7577 4.27454 16.0804 4.05719 16.4368 3.90917C16.8229 3.74983 17.2378 3.67021 17.656 3.6752C18.2009 3.6752 18.6522 3.76039 19.0099 3.93077C19.3686 4.10129 19.6899 4.34009 19.9556 4.63357L18.9557 5.69646C18.7867 5.51802 18.5933 5.3638 18.3813 5.23827C18.1549 5.11798 17.9004 5.05954 17.6437 5.06893C17.4488 5.0662 17.2558 5.10805 17.0798 5.19123C16.9115 5.27262 16.7615 5.38687 16.6388 5.52712C16.5109 5.67332 16.4124 5.84238 16.3485 6.02521C16.2804 6.2175 16.2464 6.42003 16.248 6.62382V6.6449C16.2462 6.85518 16.2809 7.06424 16.3501 7.26302C16.4142 7.44678 16.5146 7.61604 16.6454 7.76093C16.7746 7.9032 16.932 8.01754 17.1077 8.09682C17.297 8.18036 17.5024 8.2221 17.7096 8.21912C17.9581 8.22411 18.2038 8.16701 18.4242 8.05309C18.6442 7.93108 18.8481 7.78244 19.0311 7.61058L19.9886 8.57383ZM22.2022 9.48951H20.5675V1.71265H22.2012L22.2022 9.48951ZM29.1326 6.64594C29.1349 7.04252 29.0541 7.43524 28.8953 7.79926C28.7408 8.15219 28.518 8.47173 28.2396 8.73986C27.9542 9.0133 27.6186 9.23019 27.2511 9.37888C26.8555 9.53794 26.4319 9.61756 26.0048 9.61303C25.5817 9.61699 25.1619 9.53917 24.7688 9.38394C24.403 9.24115 24.0689 9.02893 23.7852 8.75919C23.5087 8.49198 23.2879 8.17352 23.1353 7.82191C22.9765 7.45718 22.8961 7.06371 22.899 6.6665V6.6449C22.896 6.24768 22.9765 5.85419 23.1353 5.48949C23.2897 5.13653 23.5123 4.81693 23.7906 4.54872C24.0758 4.27489 24.4115 4.05795 24.7794 3.90969C25.1749 3.75063 25.5985 3.67102 26.0257 3.67572C26.4488 3.67176 26.8686 3.74958 27.2616 3.90482C27.6276 4.04843 27.9616 4.26181 28.2447 4.53287C28.5212 4.80008 28.742 5.11855 28.8946 5.47015C29.0534 5.83488 29.1338 6.22835 29.1309 6.62556L29.1326 6.64594ZM27.5207 6.66755V6.64594C27.5223 6.44038 27.4861 6.23624 27.414 6.0435C27.3438 5.85768 27.2373 5.6874 27.1006 5.54241C26.9639 5.39743 26.7997 5.28058 26.6174 5.19855C26.4246 5.11181 26.2149 5.06815 26.0032 5.07068C25.7873 5.06666 25.573 5.10836 25.3746 5.19298C25.1969 5.27132 25.0377 5.38575 24.9074 5.52887C24.7765 5.67387 24.6759 5.84309 24.6113 6.02678C24.5434 6.21858 24.5094 6.42056 24.5108 6.62382V6.6449C24.5097 6.85006 24.5462 7.05371 24.6185 7.24595C24.7603 7.61956 25.0439 7.92339 25.4087 8.09247C25.6023 8.17995 25.8132 8.22358 26.026 8.22017C26.242 8.2242 26.4564 8.18251 26.6548 8.09787C26.8325 8.01957 26.9917 7.9052 27.122 7.76215C27.2526 7.61792 27.3531 7.44962 27.418 7.26685C27.4866 7.07399 27.5211 6.87086 27.5196 6.6665L27.5207 6.66755ZM34.9891 9.48969H33.3544V8.67905C33.2604 8.80122 33.1582 8.91698 33.0485 9.02557C32.936 9.13637 32.8119 9.23463 32.6776 9.31826C32.537 9.40536 32.3851 9.47348 32.226 9.5207C32.0447 9.57285 31.8565 9.59809 31.6677 9.59561C31.0448 9.59561 30.5631 9.40746 30.2228 9.03115C29.8827 8.65484 29.7125 8.13654 29.7125 7.47626V3.78025H31.3455V6.96476C31.3455 7.34804 31.4317 7.63724 31.6036 7.83236C31.7755 8.02748 32.0191 8.12522 32.3345 8.12557C32.6491 8.12557 32.898 8.02801 33.0808 7.83236C33.2637 7.63689 33.3551 7.34769 33.3551 6.96476V3.78025H34.9886L34.9891 9.48969ZM41.6833 9.48969H40.049V8.6686C39.8523 8.93402 39.6059 9.15944 39.3232 9.33254C39.0407 9.50641 38.6844 9.59334 38.2541 9.59387C37.9189 9.59464 37.5867 9.53012 37.2766 9.40397C36.9599 9.27509 36.6744 9.08103 36.439 8.83463C36.1851 8.56686 35.9861 8.25289 35.8527 7.91006C35.6991 7.507 35.6243 7.07865 35.6323 6.64786V6.62695C35.6243 6.19611 35.6991 5.76769 35.8527 5.36458C35.9849 5.02209 36.1818 4.70775 36.4328 4.43844C36.6658 4.19101 36.95 3.99654 37.266 3.86841C37.5795 3.741 37.9153 3.67595 38.2541 3.67694C38.6914 3.67694 39.0516 3.76231 39.3345 3.93269C39.6035 4.09178 39.8448 4.29299 40.049 4.52851V1.71265H41.682L41.6833 9.48969ZM40.0713 6.64612V6.62521C40.0744 6.40554 40.0365 6.1872 39.9597 5.98113C39.8915 5.79718 39.7895 5.62735 39.6588 5.48026C39.5364 5.34414 39.3863 5.23535 39.2183 5.16109C39.047 5.08739 38.8623 5.04936 38.6756 5.04936C38.4889 5.04936 38.3042 5.08739 38.133 5.16109C37.9636 5.23601 37.8116 5.34465 37.6863 5.48026C37.5534 5.62556 37.4496 5.79459 37.3805 5.97834C37.3027 6.1861 37.2647 6.40643 37.2687 6.628V6.64891C37.2656 6.86874 37.3035 7.08726 37.3803 7.29351C37.4492 7.47739 37.553 7.64647 37.6862 7.79159C37.8114 7.92744 37.9635 8.03632 38.133 8.11146C38.3042 8.18516 38.4889 8.22319 38.6756 8.22319C38.8623 8.22319 39.047 8.18516 39.2183 8.11146C39.3863 8.03696 39.5365 7.92793 39.6588 7.79159C39.7892 7.64537 39.8912 7.4765 39.9597 7.29351C40.0367 7.08619 40.0741 6.86615 40.0703 6.64507L40.0713 6.64612ZM49.9186 9.48969H48.3383V8.87121C48.1359 9.09262 47.8911 9.27184 47.618 9.3984C47.3389 9.52976 46.9987 9.59544 46.5974 9.59544C46.3372 9.59735 46.0782 9.56004 45.8292 9.48481C45.5991 9.41553 45.3854 9.30132 45.2005 9.14892C45.0205 8.99883 44.8757 8.81167 44.7761 8.60048C44.6682 8.36488 44.615 8.10829 44.6204 7.84961V7.8287C44.613 7.54921 44.672 7.27191 44.7925 7.01912C44.9035 6.79555 45.0674 6.6019 45.2703 6.45465C45.4904 6.29822 45.7384 6.18449 46.0012 6.11946C46.3083 6.04225 46.6244 6.005 46.9412 6.00866C47.1988 6.0055 47.456 6.02685 47.7094 6.07242C47.9268 6.11389 48.1409 6.16998 48.3505 6.24054V6.14472C48.3505 5.80395 48.2468 5.54576 48.039 5.37015C47.8312 5.19454 47.5232 5.10587 47.1149 5.10395C46.8352 5.10047 46.5559 5.1273 46.2819 5.18374C46.0242 5.2422 45.771 5.31876 45.5243 5.41284L45.1124 4.1745C45.4324 4.0376 45.763 3.92655 46.101 3.84245C46.5097 3.75024 46.9282 3.7073 47.3473 3.71457C48.2427 3.71457 48.8942 3.93112 49.3013 4.36423C49.7084 4.79733 49.9132 5.40082 49.9155 6.17469L49.9186 9.48969ZM48.3717 7.47731V7.19072C48.0432 7.04796 47.6881 6.97536 47.3294 6.97765C46.978 6.97765 46.7022 7.04508 46.502 7.18009C46.4049 7.24341 46.3261 7.33067 46.2733 7.4333C46.2206 7.53593 46.1956 7.6504 46.201 7.76546V7.78706C46.1963 7.88592 46.2165 7.98438 46.2597 8.07362C46.3028 8.16286 46.3677 8.24009 46.4483 8.29839C46.6132 8.41912 46.828 8.4794 47.0926 8.4794C47.4793 8.4794 47.7892 8.38707 48.0221 8.20275C48.1341 8.1177 48.2242 8.00747 48.2847 7.88116C48.3453 7.75484 48.3747 7.61606 48.3705 7.47626L48.3717 7.47731ZM55.8384 8.574C55.5641 8.8748 55.2411 9.12821 54.8827 9.32383C54.5241 9.5193 54.059 9.61686 53.487 9.61652C53.0756 9.62012 52.6679 9.54045 52.2887 9.38237C51.9344 9.23685 51.6128 9.02305 51.3426 8.75339C51.0723 8.48372 50.8588 8.16355 50.7144 7.81145C50.564 7.44833 50.4882 7.05917 50.4911 6.66668V6.64507C50.4885 6.25097 50.5643 5.86022 50.7144 5.49524C50.8588 5.14254 51.0705 4.82076 51.3379 4.5475C51.608 4.27361 51.9307 4.05619 52.2871 3.90813C52.6733 3.74876 53.0882 3.66915 53.5065 3.67415C54.0509 3.67415 54.5023 3.75952 54.8604 3.9299C55.219 4.10064 55.5403 4.33931 55.8061 4.63252L54.8068 5.69664C54.6375 5.51816 54.4439 5.36395 54.2316 5.23845C54.0351 5.12486 53.7899 5.06806 53.4958 5.06806C53.3008 5.06533 53.1079 5.10718 52.9319 5.19036C52.7637 5.27181 52.6139 5.38605 52.4914 5.52625C52.3635 5.67239 52.265 5.84139 52.2011 6.02416C52.1322 6.2173 52.0976 6.42086 52.099 6.62573V6.64664C52.098 6.85651 52.1331 7.06501 52.2027 7.26319C52.2668 7.44695 52.3672 7.61622 52.498 7.76111C52.6272 7.90337 52.7846 8.01772 52.9604 8.097C53.1497 8.18062 53.355 8.22243 53.5622 8.2193C53.8105 8.22437 54.0561 8.16726 54.2762 8.05327C54.4965 7.9314 54.7006 7.78275 54.8838 7.61076L55.8384 8.574ZM61.297 9.48969H59.7176V8.87121C59.515 9.09236 59.2702 9.27154 58.9974 9.3984C58.7183 9.52976 58.3779 9.59544 57.9768 9.59544C57.7166 9.59741 57.4575 9.56011 57.2086 9.48481C56.9785 9.41565 56.7647 9.30144 56.5799 9.14892C56.3999 8.99869 56.255 8.81158 56.155 8.60048C56.0471 8.36488 55.9939 8.10829 55.9993 7.84961V7.8287C55.9922 7.54925 56.051 7.27202 56.1712 7.01912C56.2826 6.79563 56.4468 6.60202 56.6497 6.45465C56.8697 6.29812 57.1177 6.18438 57.3806 6.11946C57.6877 6.04221 58.0037 6.00496 58.3206 6.00866C58.5782 6.00552 58.8354 6.02687 59.0888 6.07242C59.3057 6.11458 59.5193 6.17173 59.7281 6.24281V6.1449C59.7281 5.80395 59.6244 5.54576 59.4166 5.37015C59.209 5.19454 58.9009 5.10587 58.4927 5.10395C58.2129 5.10051 57.9335 5.12726 57.6595 5.18374C57.4018 5.2422 57.1486 5.31876 56.9019 5.41284L56.4939 4.17712C56.8137 4.04022 57.1442 3.92923 57.4822 3.84523C57.891 3.75302 58.3096 3.71008 58.7288 3.71736C59.6244 3.71736 60.2757 3.93391 60.6828 4.36701C61.0901 4.80012 61.2949 5.4036 61.297 6.17747V9.48969ZM59.7494 7.47731V7.19072C59.5957 7.12334 59.4356 7.07156 59.2714 7.03619C59.0861 6.99602 58.8969 6.97638 58.7072 6.97765C58.3565 6.97765 58.0807 7.04508 57.8796 7.18009C57.7826 7.24347 57.7039 7.33076 57.6513 7.43339C57.5986 7.53601 57.5738 7.65045 57.5792 7.76546V7.78706C57.5745 7.88587 57.5946 7.98428 57.6377 8.0735C57.6807 8.16273 57.7454 8.23999 57.826 8.29839C57.9905 8.41912 58.2055 8.4794 58.4709 8.4794C58.8576 8.4794 59.1674 8.38707 59.4005 8.20275C59.5126 8.11778 59.6028 8.00758 59.6634 7.88126C59.7241 7.75493 59.7536 7.61611 59.7494 7.47626V7.47731ZM67.9375 9.48969H66.3039V8.6686C66.1073 8.93419 65.8608 9.15964 65.578 9.33254C65.2957 9.50641 64.9392 9.59334 64.5089 9.59387C64.1735 9.59387 63.8414 9.52871 63.5315 9.40171C63.2148 9.27282 62.9293 9.07876 62.6939 8.83237C62.4405 8.56522 62.2416 8.25204 62.1082 7.91006C61.9536 7.50719 61.8779 7.07882 61.885 6.64786V6.62695C61.8779 6.19577 61.9535 5.76754 62.1082 5.36458C62.2403 5.02209 62.4372 4.70775 62.6883 4.43844C62.9212 4.19103 63.2054 3.99656 63.5213 3.86841C63.8349 3.74093 64.1707 3.67587 64.5096 3.67694C64.9464 3.67694 65.3065 3.76231 65.5897 3.93269C65.8588 4.09163 66.1 4.29286 66.3039 4.52851V1.71265H67.9375V9.48969ZM66.3278 6.64507V6.62417C66.3309 6.40444 66.2931 6.18604 66.2162 5.97991C66.148 5.79602 66.0459 5.62626 65.9153 5.47921C65.7929 5.34303 65.6428 5.23418 65.4748 5.15987C65.3035 5.08617 65.1188 5.04814 64.9321 5.04814C64.7454 5.04814 64.5607 5.08617 64.3895 5.15987C64.2201 5.23484 64.0681 5.34354 63.9428 5.47921C63.8099 5.62446 63.7061 5.79343 63.637 5.97713C63.5591 6.18493 63.5212 6.40533 63.5252 6.62695V6.64786C63.5221 6.8677 63.56 7.08621 63.6368 7.29246C63.7057 7.47634 63.8095 7.64542 63.9427 7.79055C64.0679 7.92634 64.22 8.03515 64.3895 8.11024C64.5607 8.18394 64.7454 8.22197 64.9321 8.22197C65.1188 8.22197 65.3035 8.18394 65.4748 8.11024C65.6428 8.03579 65.7929 7.92682 65.9153 7.79055C66.0457 7.64432 66.1477 7.47546 66.2162 7.29246C66.2936 7.08532 66.3314 6.86581 66.3278 6.64507ZM74.2152 6.79455C74.2152 6.87243 74.2152 6.94002 74.2095 6.99699C74.2039 7.05396 74.2006 7.12086 74.1934 7.19908H70.1852C70.2641 7.5679 70.4271 7.84647 70.6742 8.03498C70.9214 8.22348 71.2278 8.31755 71.5932 8.31721C71.8437 8.32145 72.0923 8.27435 72.3236 8.17888C72.5687 8.06658 72.7938 7.91561 72.9901 7.73184L73.9209 8.55135C73.6536 8.88138 73.3159 9.14873 72.9321 9.33428C72.5454 9.52244 72.0905 9.61652 71.5675 9.61652C71.1582 9.62029 70.7518 9.54802 70.3694 9.40345C70.0116 9.26837 69.6859 9.06108 69.4132 8.79473C69.1428 8.52953 68.929 8.21323 68.7844 7.86459C68.6307 7.48386 68.5548 7.07669 68.5611 6.66668V6.64507C68.5589 6.25231 68.6298 5.86251 68.7703 5.49524C68.9029 5.1452 69.1017 4.82351 69.3562 4.5475C69.6168 4.26674 69.9344 4.04379 70.2881 3.89327C70.6418 3.74275 71.0236 3.66808 71.4085 3.67415C71.8885 3.67415 72.3042 3.75952 72.6551 3.9299C72.9946 4.09143 73.2935 4.32599 73.53 4.61649C73.7657 4.90995 73.9408 5.24656 74.0454 5.60709C74.1575 5.98566 74.2141 6.37835 74.2129 6.77295L74.2152 6.79455ZM72.6243 6.18584C72.5742 5.82312 72.4452 5.53026 72.2376 5.30709C72.0298 5.08409 71.7535 4.97259 71.4085 4.97346C71.065 4.97346 70.7874 5.08409 70.576 5.30552C70.3647 5.52677 70.2267 5.8219 70.1623 6.19072L72.6243 6.18584ZM83.6599 9.48707H82.0269V6.305C82.0269 5.92172 81.9443 5.63235 81.7796 5.43671C81.6147 5.24123 81.377 5.14332 81.0671 5.14298C80.759 5.14298 80.5169 5.24054 80.3413 5.43566C80.1655 5.63078 80.0784 5.92051 80.0794 6.305V9.48881H78.4464V6.30518C78.4464 5.9219 78.364 5.63253 78.1991 5.43688C78.0342 5.24141 77.7979 5.1435 77.4902 5.14315C77.1818 5.14315 76.9399 5.24071 76.7642 5.43583C76.5886 5.63096 76.501 5.92068 76.5014 6.30518V9.48899H74.8699V3.78025H76.503V4.58984C76.5974 4.46789 76.6998 4.35203 76.8095 4.24349C76.9217 4.13252 77.0461 4.03443 77.1802 3.95081C77.3223 3.86275 77.476 3.79456 77.6369 3.7482C77.8203 3.69677 78.0102 3.67178 78.2008 3.67398C78.5436 3.66505 78.8827 3.74581 79.184 3.90813C79.4596 4.06397 79.6821 4.29758 79.8233 4.57921C80.0519 4.2986 80.3372 4.06838 80.6607 3.90325C80.9887 3.74607 81.3494 3.66754 81.7137 3.67398C82.3229 3.67398 82.7993 3.85151 83.1428 4.20639C83.4864 4.56127 83.6583 5.08305 83.6589 5.77172L83.6599 9.48707ZM90 3.78025L87.7841 9.62523C87.6925 9.88194 87.5774 10.1298 87.4401 10.3656C87.3329 10.5515 87.1969 10.7195 87.037 10.8636C86.8917 10.9906 86.7203 11.085 86.5346 11.1402C86.3251 11.2003 86.1078 11.229 85.8897 11.2254C85.6209 11.2298 85.3529 11.1939 85.0948 11.1191C84.8659 11.0484 84.6459 10.9519 84.4391 10.8315L84.9876 9.66007C85.0979 9.72547 85.2148 9.77908 85.3365 9.82C85.4487 9.86007 85.5668 9.8815 85.686 9.88359C85.8042 9.88986 85.9217 9.86215 86.0243 9.8038C86.1253 9.72737 86.2049 9.62662 86.2555 9.51111L84.0016 3.78025H85.7324L87.0411 7.66738L88.2977 3.78025H90Z" fill="#005EEC"/>
</svg>
