<svg width="43" height="47" viewBox="0 0 43 47" fill="none" xmlns="http://www.w3.org/2000/svg">
<path d="M2.72405 9.72717C1.93563 10.2339 1.27734 10.9239 0.803655 11.7402C0.329965 12.5565 0.0544839 13.4756 0 14.4214L0 32.5262C0.0544839 33.472 0.329965 34.3911 0.803655 35.2074C1.27734 36.0237 1.93563 36.7137 2.72405 37.2204L18.7212 46.3064C19.5692 46.7283 20.501 46.9476 21.4453 46.9476C22.3896 46.9476 23.3213 46.7283 24.1693 46.3064L40.1829 37.2199C40.9712 36.7132 41.6294 36.0233 42.1031 35.2071C42.5768 34.3909 42.8523 33.4719 42.9069 32.5262V14.4209C42.8523 13.4751 42.5768 12.5561 42.1031 11.7399C41.6294 10.9238 40.9712 10.2338 40.1829 9.72717L24.1857 0.641263C23.3377 0.219349 22.4059 0 21.4616 0C20.5173 0 19.5856 0.219349 18.7376 0.641263L2.72405 9.72717Z" fill="#14BF96"/>
<path d="M37.8883 18.981C29.0061 18.981 22.3698 26.4574 22.3698 35.6276V36.0133H20.5867V35.6276C20.5867 26.4574 13.9826 19.0142 5.03489 18.981V20.6575C5.01735 24.0451 6.0201 27.3572 7.90871 30.1498C9.79732 32.9423 12.4815 35.0819 15.6015 36.2815C17.5001 36.9883 19.5061 37.3513 21.5282 37.3539C23.5662 37.3512 25.5881 36.9883 27.5035 36.2815C30.619 35.077 33.2983 32.9356 35.1834 30.1437C37.0685 27.3517 38.0697 24.042 38.0531 20.6569C37.9702 20.121 37.9374 19.5507 37.8883 18.981Z" fill="white"/>
<path d="M21.4617 19.6848C24.1969 19.6848 26.4142 17.4332 26.4142 14.6558C26.4142 11.8783 24.1969 9.62677 21.4617 9.62677C18.7265 9.62677 16.5092 11.8783 16.5092 14.6558C16.5092 17.4332 18.7265 19.6848 21.4617 19.6848Z" fill="white"/>
</svg>
