<svg width="111" height="50" viewBox="0 0 111 50" fill="none" xmlns="http://www.w3.org/2000/svg">
<path d="M16.6224 9.75566L8.31005 4.87794L0 9.75566V4.87794L8.31131 0L16.6237 4.87794V9.75566H16.6224Z" fill="#A435F0"/>
<path d="M4 22.8519H8.35377V33.6045C8.35377 36.3827 10.3947 37.7368 12.3113 37.7368C14.2444 37.7368 16.2699 36.3466 16.2699 33.5673V22.8521H20.6237V33.8607C20.6237 36.4199 19.832 38.3947 18.2492 39.7488C16.6651 41.102 14.6868 41.7607 12.2745 41.7607C9.86452 41.7607 7.88523 41.103 6.33895 39.749C4.79142 38.3955 4 36.4942 4 33.9699V22.8519ZM58.2636 36.2155C56.9458 37.4086 55.4444 37.993 53.7324 37.993C50.6092 37.993 48.5149 36.1843 48.2784 33.3831H62.3453C62.3453 33.3831 62.44 32.479 62.44 31.6299C62.44 28.9961 61.6118 26.8012 59.92 25.0094C58.2661 23.2175 56.1082 22.3395 53.4804 22.3395C50.7107 22.3395 48.4428 23.2175 46.6433 25.0094C44.8805 26.8012 43.9814 29.1416 43.9814 32.0688V32.2132C43.9814 35.103 44.8805 37.4073 46.6433 39.127C48.4063 40.8456 50.7452 41.7235 53.588 41.7235C56.8937 41.7235 59.5236 40.3982 61.497 38.1132L58.2636 36.2155ZM49.9891 27.2401C50.9592 26.4718 52.1483 26.07 53.4791 26.07C54.7381 26.07 55.7815 26.4718 56.6818 27.2775C57.5408 28.0111 58.0047 28.912 58.0448 29.9474H48.3897C48.5291 28.877 49.0616 27.9752 49.9904 27.2414L49.9891 27.2403V27.2401ZM102.09 44.2082C100.324 48.4473 98.4758 49.8893 95.6424 49.8893H93.6783V45.9663H95.266C96.2409 45.9663 97.1473 45.5935 98.0108 43.5683L98.8745 41.5406L91.4257 22.8519H95.8518L101.141 36.3118L106.575 22.8519H111L102.091 44.208H102.09V44.2082ZM37.5725 15.7937V24.5212C36.1458 23.2224 33.9264 22.4491 31.7801 22.4491C29.2246 22.4491 27.0667 23.363 25.3039 25.2271C23.5766 27.0562 22.7129 29.3233 22.7129 32.0665C22.7129 34.8109 23.5766 37.0778 25.3039 38.943C27.0667 40.7721 29.2259 41.6874 31.7803 41.6874C34.7261 41.6874 36.5882 40.5101 37.5725 39.5877V41.2847H41.891V15.7948H37.5725V15.7937ZM36.277 36.0917C35.2336 37.1524 33.9027 37.7019 32.3552 37.7019C30.8077 37.7019 29.549 37.1524 28.5053 36.0917C27.4997 35.031 26.9946 33.678 26.9946 32.0688C26.9946 30.4585 27.4986 29.1055 28.5055 28.0448C29.549 26.9842 30.8077 26.4356 32.355 26.4356C33.9027 26.4356 35.2336 26.9842 36.277 28.0448C37.356 29.1055 37.8979 30.4585 37.8979 32.0688C37.8979 33.678 37.356 35.031 36.277 36.0917ZM84.7129 22.4863C81.4333 22.4863 79.7286 23.8692 78.5608 25.2018C78.0935 24.2962 76.778 22.4863 73.704 22.4863C71.1061 22.4863 69.5753 23.8212 68.8109 24.7712V22.8542H64.5304V41.287H68.8109V30.6799C68.8109 28.1927 70.3229 26.4008 72.3364 26.4008C74.3893 26.4008 75.5757 27.9739 75.5757 30.497V41.2857H79.8576V30.6786C79.8576 28.1555 81.3315 26.3997 83.4542 26.3997C85.5056 26.3997 86.6922 27.9726 86.6922 30.4946V41.2847H91.0104V29.8739C91.0104 25.0682 88.4692 22.4873 84.7129 22.4873V22.486V22.4863Z" fill="black"/>
</svg>
